<svg xmlns="http://www.w3.org/2000/svg" viewBox="0 0 400 400">
  <!-- Background Circle -->
  <circle cx="200" cy="200" r="195" fill="#1a1a1a" stroke="#d4af37" stroke-width="5"/>
  
  <!-- Decorative Border -->
  <circle cx="200" cy="200" r="180" fill="none" stroke="#d4af37" stroke-width="2" opacity="0.5"/>
  
  <!-- Horse Silhouette -->
  <path d="M 280 180 Q 270 160 250 155 Q 240 152 230 155 L 220 160 Q 215 165 210 165 L 190 165 Q 180 165 175 170 L 160 185 Q 155 190 150 195 L 140 205 L 135 215 Q 133 220 135 225 L 140 230 L 145 232 L 150 230 L 152 225 L 150 220 L 155 215 L 165 210 L 175 208 L 185 208 L 195 210 L 200 215 L 198 225 L 195 235 L 190 245 L 185 250 L 175 252 L 165 250 L 160 245 L 158 240 L 155 238 L 150 240 L 148 245 L 150 252 L 155 258 L 165 262 L 178 263 L 190 260 L 200 255 L 208 248 L 215 240 L 220 230 L 223 220 L 230 212 L 240 208 L 250 208 L 258 210 L 265 215 L 268 222 L 268 230 L 265 238 L 260 245 L 252 250 L 245 252 L 240 252 L 235 250 L 232 245 L 230 242 L 225 242 L 222 245 L 222 252 L 225 258 L 232 263 L 242 266 L 255 266 L 268 262 L 278 255 L 285 245 L 288 232 L 288 218 L 285 205 L 280 195 Z" fill="#d4af37"/>
  
  <!-- Wagon Wheel -->
  <g transform="translate(120, 280)">
    <circle cx="0" cy="0" r="35" fill="none" stroke="#d4af37" stroke-width="4"/>
    <circle cx="0" cy="0" r="5" fill="#d4af37"/>
    <line x1="-25" y1="-25" x2="25" y2="25" stroke="#d4af37" stroke-width="2"/>
    <line x1="25" y1="-25" x2="-25" y2="25" stroke="#d4af37" stroke-width="2"/>
    <line x1="0" y1="-35" x2="0" y2="35" stroke="#d4af37" stroke-width="2"/>
    <line x1="-35" y1="0" x2="35" y2="0" stroke="#d4af37" stroke-width="2"/>
  </g>
  
  <!-- Second Wagon Wheel -->
  <g transform="translate(280, 280)">
    <circle cx="0" cy="0" r="35" fill="none" stroke="#d4af37" stroke-width="4"/>
    <circle cx="0" cy="0" r="5" fill="#d4af37"/>
    <line x1="-25" y1="-25" x2="25" y2="25" stroke="#d4af37" stroke-width="2"/>
    <line x1="25" y1="-25" x2="-25" y2="25" stroke="#d4af37" stroke-width="2"/>
    <line x1="0" y1="-35" x2="0" y2="35" stroke="#d4af37" stroke-width="2"/>
    <line x1="-35" y1="0" x2="35" y2="0" stroke="#d4af37" stroke-width="2"/>
  </g>
  
  <!-- Text TRABEL -->
  <text x="200" y="120" font-family="serif" font-size="45" font-weight="bold" fill="#d4af37" text-anchor="middle">TRABEL</text>
  
  <!-- Subtitle -->
  <text x="200" y="145" font-family="serif" font-size="16" fill="#d4af37" text-anchor="middle" opacity="0.8">Traditionele Aanspanning</text>
  
  <!-- Decorative Line -->
  <line x1="120" y1="150" x2="280" y2="150" stroke="#d4af37" stroke-width="1" opacity="0.5"/>
  
  <!-- Bottom Text -->
  <text x="200" y="355" font-family="serif" font-size="18" fill="#d4af37" text-anchor="middle">vzw</text>
</svg>
