<?xml version="1.0" standalone="no"?>
<!DOCTYPE svg PUBLIC "-//W3C//DTD SVG 20010904//EN"
 "http://www.w3.org/TR/2001/REC-SVG-20010904/DTD/svg10.dtd">
<svg version="1.0" xmlns="http://www.w3.org/2000/svg"
 width="1000.000000pt" height="1000.000000pt" viewBox="0 0 1000.000000 1000.000000"
 preserveAspectRatio="xMidYMid meet">
<metadata>
Created by potrace 1.11, written by Peter Selinger 2001-2013
</metadata>
<g transform="translate(0.000000,1000.000000) scale(0.100000,-0.100000)"
fill="#000000" stroke="none">
<path d="M3735 9918 c-73 -42 -113 -120 -136 -268 -32 -209 -66 -356 -101
-440 -19 -47 -64 -152 -98 -233 l-64 -148 -13 51 c-25 98 -77 145 -163 145
-113 0 -247 -100 -497 -373 -227 -248 -369 -463 -424 -642 -28 -95 -30 -218
-4 -287 19 -51 87 -166 111 -190 8 -8 26 -30 40 -48 l26 -34 -51 -94 c-27 -52
-63 -117 -79 -144 -16 -27 -51 -94 -77 -148 -27 -55 -59 -116 -71 -137 -13
-20 -35 -74 -50 -120 -14 -45 -49 -146 -76 -223 -67 -190 -102 -295 -126 -390
-33 -123 -129 -526 -138 -575 -2 -14 -9 -45 -14 -70 -17 -80 -20 -103 -28
-220 -9 -154 -9 -746 1 -840 12 -116 17 -151 27 -210 5 -30 12 -80 16 -110 3
-30 27 -159 54 -285 39 -185 61 -265 114 -408 36 -98 66 -180 66 -182 0 -7
110 -248 132 -290 85 -159 254 -419 333 -510 28 -33 100 -118 160 -190 117
-139 156 -179 287 -292 95 -83 228 -178 228 -163 0 6 -11 31 -25 58 -75 142
-161 355 -184 451 l-18 76 201 -201 c169 -169 330 -310 496 -434 19 -14 45
-34 59 -45 14 -12 40 -29 56 -39 17 -11 62 -42 100 -71 87 -65 244 -175 250
-175 2 0 24 -13 48 -30 153 -103 587 -296 705 -314 36 -5 51 11 35 37 -4 8
-60 70 -123 137 -132 140 -231 267 -330 425 -89 141 -90 145 -53 145 32 0 267
-107 388 -176 215 -124 449 -315 631 -514 28 -30 86 -88 130 -127 118 -109
176 -181 400 -503 87 -125 190 -301 234 -398 13 -29 27 -52 31 -52 13 0 69
146 111 294 6 22 13 46 15 51 7 24 54 223 59 255 3 19 12 67 21 105 8 39 16
78 18 89 3 10 7 44 11 75 3 31 8 58 9 61 2 3 7 37 10 75 4 39 8 72 10 75 7 12
20 266 19 390 0 120 -4 185 -19 340 -2 25 -7 74 -10 110 -21 223 -116 601
-168 668 -36 46 68 -15 183 -107 117 -94 249 -267 385 -504 37 -65 72 -116 78
-114 18 6 27 57 28 167 1 119 -6 231 -21 305 -5 28 -11 68 -14 90 -4 36 -22
113 -46 200 -9 35 -36 112 -49 140 -5 11 -17 40 -26 65 -32 86 -140 296 -208
405 -38 61 -77 126 -87 145 -10 19 -34 59 -55 89 -74 111 -151 292 -175 413
l-11 57 -37 -4 c-37 -4 -178 -52 -282 -97 -88 -37 -337 -165 -398 -205 -57
-36 -88 -54 -172 -101 -25 -13 -61 -36 -80 -50 -45 -34 -231 -195 -249 -216
-7 -9 -17 -16 -21 -16 -17 0 -51 119 -74 260 -25 148 -29 183 -30 260 -1 41
-5 81 -10 89 -7 11 -39 12 -170 7 -88 -3 -183 -9 -210 -12 -74 -9 -50 9 82 60
136 53 323 94 437 96 118 3 118 3 110 -17 -19 -44 -57 -150 -61 -168 -13 -64
-27 -144 -29 -170 -3 -30 -8 -184 -6 -197 1 -3 31 25 67 62 103 107 389 289
564 359 19 8 53 22 75 32 50 22 245 103 395 164 63 26 153 60 200 75 85 28
403 103 580 136 14 3 75 19 135 36 225 63 281 77 310 82 133 23 358 111 500
197 209 126 331 236 488 442 145 189 138 182 202 226 46 32 248 323 290 417
58 130 57 212 -2 271 -68 67 -192 134 -270 145 -5 0 -30 7 -58 15 -27 9 -59
17 -70 19 -11 2 -45 13 -75 24 -30 12 -89 32 -130 46 -41 15 -124 45 -185 69
-60 24 -150 55 -200 70 -49 15 -130 39 -180 55 -49 15 -108 30 -130 34 -22 3
-65 12 -95 20 -30 8 -74 16 -97 20 -23 3 -70 12 -105 19 -35 8 -85 18 -113 21
-27 4 -71 14 -97 22 -26 9 -53 12 -59 8 -8 -4 -9 -3 -5 4 4 8 0 12 -11 12 -10
0 -74 19 -143 42 -199 67 -273 129 -390 327 -68 115 -190 247 -301 326 -46 33
-86 62 -89 65 -3 3 -26 22 -52 43 -26 21 -53 44 -60 51 -30 29 -175 120 -241
151 -40 18 -92 36 -117 40 -24 4 -48 8 -51 11 -4 2 -23 6 -43 9 -20 3 -51 7
-70 10 -18 2 -65 7 -102 10 -38 3 -80 8 -94 10 -41 8 -85 14 -122 19 -58 8
-161 36 -186 52 -51 33 -82 105 -118 278 -33 162 -48 221 -79 316 -15 47 -56
172 -91 278 -89 270 -164 458 -226 565 -16 27 -58 103 -95 170 -135 249 -153
276 -239 359 -80 77 -107 99 -151 122 -37 18 -119 21 -148 4z m-517 -987 c17
-18 38 -58 53 -103 22 -67 24 -90 25 -273 0 -189 4 -222 39 -394 11 -58 49
-149 108 -258 l17 -31 62 20 c144 45 356 55 505 24 430 -91 746 -415 828 -851
13 -71 14 -302 1 -360 -49 -216 -134 -389 -257 -521 l-29 -30 22 -31 c13 -17
29 -39 36 -50 7 -10 65 -90 128 -178 63 -88 123 -171 132 -185 130 -192 366
-507 434 -581 53 -58 222 -118 378 -134 30 -3 66 -8 80 -10 145 -23 342 -38
530 -39 67 -1 86 4 185 45 201 84 280 88 446 24 189 -73 238 -107 226 -157
-15 -59 -214 -224 -301 -249 -77 -23 -224 1 -401 66 -86 32 -111 35 -420 50
-92 5 -162 11 -225 20 -14 2 -83 11 -155 20 -190 25 -398 98 -476 168 -13 12
-60 53 -104 92 -44 38 -105 92 -135 120 -51 46 -89 79 -240 210 -30 26 -87 76
-125 110 -39 35 -138 118 -220 186 -82 67 -165 137 -185 155 -80 73 -77 72
-139 57 -79 -20 -298 -24 -396 -7 -166 29 -324 98 -454 197 -222 170 -376 437
-408 707 -11 96 -6 257 11 320 l15 55 -134 135 c-247 250 -340 369 -372 479
-23 81 -24 121 -2 211 44 186 194 409 471 703 148 157 240 235 319 271 70 33
91 32 127 -3z m-722 -3923 c126 -251 322 -465 557 -606 38 -22 82 -44 98 -47
16 -4 31 -11 34 -16 4 -5 15 -9 26 -9 10 0 19 -5 19 -11 0 -6 -8 -8 -17 -5
-10 3 -40 8 -66 11 -238 27 -484 217 -600 463 -30 65 -92 272 -81 272 2 0 15
-24 30 -52z"/>
<path d="M5176 9318 c-14 -13 -51 -74 -82 -137 -97 -195 -188 -327 -310 -448
l-73 -71 28 -69 c53 -130 130 -379 146 -473 12 -68 37 -155 53 -183 16 -27 46
-40 123 -51 20 -3 42 -7 50 -10 8 -3 43 -7 78 -11 36 -3 67 -7 70 -9 3 -2 29
-6 56 -10 28 -3 59 -8 70 -10 103 -19 109 -18 126 16 36 72 70 173 88 263 21
104 -3 370 -50 543 -126 470 -183 608 -273 663 -41 25 -69 24 -100 -3z"/>
</g>
</svg>
